<?xml version="1.0" encoding="utf-8"?>
<!-- Generator: Adobe Illustrator 19.0.0, SVG Export Plug-In . SVG Version: 6.00 Build 0)  -->
<svg version="1.1" id="publicdomainvectors.org" xmlns="http://www.w3.org/2000/svg" xmlns:xlink="http://www.w3.org/1999/xlink"
	 x="0px" y="0px" viewBox="0 0 660 660" style="enable-background:new 0 0 660 660;" xml:space="preserve">
<style type="text/css">
	.st0{fill-rule:evenodd;clip-rule:evenodd;fill:#EBC5C5;}
	.st1{fill-rule:evenodd;clip-rule:evenodd;fill:#4D4D4D;}
	.st2{fill-rule:evenodd;clip-rule:evenodd;fill:#1A1A1A;}
	.st3{fill-rule:evenodd;clip-rule:evenodd;fill:#333333;}
	.st4{fill-rule:evenodd;clip-rule:evenodd;fill:#663333;}
	.st5{fill-rule:evenodd;clip-rule:evenodd;fill:#FFFFFF;}
	.st6{fill-rule:evenodd;clip-rule:evenodd;fill:#6969F0;}
	.st7{fill-rule:evenodd;clip-rule:evenodd;fill:#7C7CFC;}
	.st8{fill-rule:evenodd;clip-rule:evenodd;fill:#FCEAEA;}
	.st9{fill-rule:evenodd;clip-rule:evenodd;fill:#FF9966;}
	.st10{fill-rule:evenodd;clip-rule:evenodd;fill:#CC6633;}
	.st11{fill-rule:evenodd;clip-rule:evenodd;fill:#AD5428;}
</style>
<desc>flag of Yemen</desc>
<g>
	<path class="st0" d="M344.9,561.2c140.7,0,255.5-114.8,255.5-255.5c0-140.7-114.8-255.5-255.5-255.5
		C204.2,50.2,89.4,165,89.4,305.7C89.4,446.4,204.2,561.2,344.9,561.2z"/>
	<path class="st1" d="M254.8,459.3H422v25.5c0,14-28.6,25.5-63.6,25.5h-40c-35,0-63.6-11.5-63.6-25.5V459.3z"/>
	<rect x="237.1" y="266.7" class="st2" width="215.5" height="62.3"/>
	<path class="st3" d="M254.8,434.6H422v25.5c0,14-28.6,25.5-63.6,25.5h-40c-35,0-63.6-11.5-63.6-25.5V434.6z"/>
	<path class="st4" d="M145.6,50.2h398.5c15.8,0,28.8,13,28.8,28.8v177.6c0,15.8-13,28.8-28.8,28.8H145.6c-15.8,0-28.8-13-28.8-28.8
		V79C116.8,63.2,129.8,50.2,145.6,50.2z"/>
	<path class="st5" d="M284.9,301.2h103.7c39.1,0,71.2,32,71.2,71.2v0c0,39.1-32,71.2-71.2,71.2H284.9c-39.1,0-71.2-32-71.2-71.2v0
		C213.7,333.2,245.7,301.2,284.9,301.2z"/>
	<path class="st2" d="M265.9,133.4h158c4.8,0,8.7,3.9,8.7,8.7v100.6c0,4.8-3.9,8.7-8.7,8.7h-158c-4.8,0-8.7-3.9-8.7-8.7V142.1
		C257.2,137.3,261.1,133.4,265.9,133.4z"/>
	<path class="st6" d="M266.5,140.8h156.7c1.1,0,2,0.9,2,2V242c0,1.1-0.9,2-2,2H266.5c-1.1,0-2-0.9-2-2v-99.3
		C264.5,141.7,265.4,140.8,266.5,140.8z"/>
	<path class="st7" d="M324.9,140.8h81.2L269.3,244h-3.5c-0.7,0-1.3-0.6-1.3-1.3v-56.3L324.9,140.8L324.9,140.8z M425.2,143.3
		L291.8,244h46.5l86.9-65.6V143.3z"/>
	<g>
		<path class="st5" d="M161.6,275.7L161.6,275.7c14.7-14.9,38.9-15.1,53.7-0.4l67.4,66.4c14.9,14.7,15.1,38.9,0.4,53.7l0,0
			c-14.7,14.9-38.9,15.1-53.7,0.4L162,329.4C147.1,314.8,146.9,290.6,161.6,275.7z"/>
		<path class="st8" d="M251.6,245.3L251.6,245.3c13.8,15.7,12.2,39.9-3.6,53.6L213.7,329c-15.7,13.8-39.9,12.2-53.6-3.6l0,0
			c-13.8-15.7-12.2-39.9,3.6-53.6l34.4-30.1C213.7,228,237.8,229.6,251.6,245.3z"/>
		<path class="st5" d="M254.8,406.8c33.4,0,60.7-27.3,60.7-60.7c0-33.4-27.3-60.7-60.7-60.7c-33.4,0-60.7,27.3-60.7,60.7
			C194.1,379.5,221.4,406.8,254.8,406.8z"/>
		<path class="st9" d="M249.5,264.2l3.8-4.7l3.9-0.8c10.3-2.2,18.5-9.8,21.6-19.9l11.2-33.1c1.4-4.1,0.4-8.6-2.5-11.7
			c-2.9-3.1-7.4-4.4-11.5-3.3c-4.2,1.1-7.4,4.4-8.4,8.6l-3.6,8.4c-0.5,1.3-1.7,2.2-3,2.4c-1.3,0.3-2.7-0.1-3.7-1v-27.7l-17.1,11.1
			c-6.6,4.3-11,11.2-12,18.9l-2.2,26.9L224,239c-5.4,4.3-7.9,11.4-6.3,18.2c1.6,6.8,6.9,12.1,13.7,13.6
			C238.2,272.2,245.2,269.6,249.5,264.2z"/>
	</g>
	<g>
		<path class="st5" d="M528.2,275.7L528.2,275.7c-14.7-14.9-38.9-15.1-53.7-0.4L407,341.8c-14.9,14.7-15.1,38.9-0.4,53.7h0
			c14.7,14.9,38.9,15.1,53.7,0.4l67.4-66.4C542.7,314.8,542.9,290.6,528.2,275.7z"/>
		<path class="st8" d="M438.2,245.3L438.2,245.3c-13.8,15.7-12.2,39.9,3.6,53.6l34.4,30.1c15.7,13.8,39.9,12.2,53.6-3.6l0,0
			c13.8-15.7,12.2-39.9-3.6-53.6l-34.4-30.1C476.1,228,451.9,229.6,438.2,245.3z"/>
		<path class="st5" d="M435,406.8c33.4,0,60.7-27.3,60.7-60.7c0-33.4-27.3-60.7-60.7-60.7c-33.4,0-60.7,27.3-60.7,60.7
			C374.3,379.5,401.5,406.8,435,406.8z"/>
		<path class="st9" d="M440.2,264.2l-3.8-4.7l-3.9-0.8c-10.3-2.2-18.5-9.8-21.6-19.9l-11.2-33.1c-1.4-4.1-0.4-8.6,2.5-11.7
			c2.9-3.1,7.4-4.4,11.5-3.3c4.2,1.1,7.4,4.4,8.4,8.6l3.6,8.4c0.5,1.3,1.7,2.2,3,2.4c1.3,0.3,2.7-0.1,3.7-1v-27.7l17.1,11.1
			c6.6,4.3,11,11.2,12,18.9l2.2,26.9l1.8,0.8c5.4,4.3,7.9,11.4,6.3,18.2c-1.6,6.8-6.9,12.1-13.7,13.6
			C451.6,272.2,444.5,269.6,440.2,264.2z"/>
	</g>
	<path class="st9" d="M287.8,281.5c6.2,0,10,6.4,8.5,14.4c-1.5,7.9-7.8,14.4-14.1,14.4c-6.2,0-10-6.4-8.5-14.4
		C275.3,288,281.6,281.5,287.8,281.5L287.8,281.5z M385.6,281.5c-6.2,0-10,6.4-8.5,14.4c1.5,7.9,7.8,14.4,14.1,14.4
		c6.2,0,10-6.4,8.5-14.4C398.1,288,391.8,281.5,385.6,281.5z"/>
	<path class="st10" d="M336.7,219.3L336.7,219.3c31.3,0,56.9,25.6,56.9,56.9v19.5c0,31.3-25.6,56.9-56.9,56.9l0,0
		c-31.3,0-56.9-25.6-56.9-56.9v-19.5C279.9,244.9,305.4,219.3,336.7,219.3z"/>
	<path class="st11" d="M336.7,321.9l-3,0.7c-7.9,1.9-16.2-1.6-20.3-8.7l0.1,4.5c0.3,9.1,7.7,16.5,16.8,16.7l0.3,1.8
		c0.5,3.4,2.8,6.2,6,7.3c3.2-1.1,5.5-3.9,6-7.3l0.3-1.8c9.1-0.2,16.5-7.5,16.8-16.7l0.1-4.5c-4.1,7-12.4,10.6-20.3,8.7L336.7,321.9z
		"/>
</g>
</svg>
